<svg width="17" height="16" viewBox="0 0 17 16" fill="none" xmlns="http://www.w3.org/2000/svg">
<path d="M13.8366 14.6666H3.16996C2.80178 14.6666 2.5033 14.3681 2.5033 13.9999V1.99992C2.5033 1.63173 2.80178 1.33325 3.16996 1.33325H13.8366C14.2048 1.33325 14.5033 1.63173 14.5033 1.99992V13.9999C14.5033 14.3681 14.2048 14.6666 13.8366 14.6666ZM13.17 13.3333V2.66659H3.83663V13.3333H13.17ZM6.5033 3.99992V5.33325C6.5033 6.43782 7.39871 7.33325 8.50331 7.33325C9.60784 7.33325 10.5033 6.43782 10.5033 5.33325V3.99992H11.8366V5.33325C11.8366 7.17418 10.3442 8.66658 8.50331 8.66658C6.66235 8.66658 5.16996 7.17418 5.16996 5.33325V3.99992H6.5033Z" fill="#878787"/>
</svg>
