<svg width="17" height="16" viewBox="0 0 17 16" fill="none" xmlns="http://www.w3.org/2000/svg">
<path d="M15.1225 5.00751L10.21 1.07751C9.24997 0.312514 7.74997 0.305014 6.79747 1.07001L1.88497 5.00751C1.17997 5.57001 0.752472 6.69501 0.902472 7.58001L1.84747 13.235C2.06497 14.5025 3.24247 15.5 4.52497 15.5H12.475C13.7425 15.5 14.9425 14.48 15.16 13.2275L16.105 7.57251C16.24 6.69501 15.8125 5.57001 15.1225 5.00751ZM9.06247 12.5C9.06247 12.8075 8.80747 13.0625 8.49997 13.0625C8.19247 13.0625 7.93747 12.8075 7.93747 12.5V10.25C7.93747 9.94251 8.19247 9.68751 8.49997 9.68751C8.80747 9.68751 9.06247 9.94251 9.06247 10.25V12.5Z" fill="#4FAF5A"/>
</svg>
