<svg width="197" height="31" viewBox="0 0 197 31" fill="none" xmlns="http://www.w3.org/2000/svg">
<path d="M3.49148 7.63636H9.37216V24.554C9.37216 25.9886 9.07031 27.1108 8.46662 27.9205C7.87003 28.7301 7.03196 29.3018 5.95241 29.6357C4.87287 29.9695 3.61222 30.1364 2.17045 30.1364C1.95739 30.1364 1.76207 30.1328 1.58452 30.1257C1.39986 30.1186 1.19744 30.108 0.977273 30.0938V25.7472C1.11932 25.7614 1.24361 25.772 1.35014 25.7791C1.44957 25.7862 1.55256 25.7898 1.65909 25.7898C2.36222 25.7898 2.84162 25.6797 3.0973 25.4595C3.36009 25.2464 3.49148 24.902 3.49148 24.4261V7.63636ZM6.43182 5.93182C5.63636 5.93182 4.95455 5.66903 4.38636 5.14347C3.81818 4.6179 3.53409 3.9858 3.53409 3.24716C3.53409 2.50852 3.81818 1.87642 4.38636 1.35085C4.95455 0.825284 5.63636 0.5625 6.43182 0.5625C7.23438 0.5625 7.91619 0.825284 8.47727 1.35085C9.04545 1.87642 9.32955 2.50852 9.32955 3.24716C9.32955 3.9858 9.04545 4.6179 8.47727 5.14347C7.91619 5.66903 7.23438 5.93182 6.43182 5.93182ZM22.9792 16.8409V7.63636H28.8599V24H23.2775V20.8892H23.1071C22.752 21.9332 22.1305 22.75 21.2427 23.3395C20.3549 23.9219 19.3002 24.2131 18.0787 24.2131C16.9352 24.2131 15.9338 23.9503 15.0744 23.4247C14.2221 22.8991 13.5581 22.1747 13.0822 21.2514C12.6135 20.3281 12.3755 19.2699 12.3684 18.0767V7.63636H18.2491V16.8409C18.2562 17.6506 18.4622 18.2862 18.867 18.7479C19.2789 19.2095 19.8542 19.4403 20.5929 19.4403C21.0829 19.4403 21.5055 19.3374 21.8606 19.1314C22.2228 18.9183 22.4998 18.62 22.6916 18.2365C22.8904 17.8459 22.9863 17.3807 22.9792 16.8409ZM37.7315 14.7955V24H31.8509V7.63636H37.4332V10.7472H37.6037C37.9588 9.71023 38.5838 8.89702 39.4787 8.30753C40.3807 7.71804 41.4318 7.4233 42.6321 7.4233C43.7898 7.4233 44.7947 7.68963 45.647 8.2223C46.5064 8.74787 47.1705 9.4723 47.6392 10.3956C48.1151 11.3189 48.3494 12.3736 48.3423 13.5597V24H42.4616V14.7955C42.4688 13.9858 42.2628 13.3501 41.8438 12.8885C41.4318 12.4268 40.8565 12.196 40.1179 12.196C39.6349 12.196 39.2124 12.3026 38.8501 12.5156C38.495 12.7216 38.2216 13.0199 38.0298 13.4105C37.8381 13.794 37.7386 14.2557 37.7315 14.7955ZM59.0863 24.2983C57.3391 24.2983 55.8335 23.9645 54.5692 23.2969C53.3121 22.6222 52.3427 21.6562 51.6609 20.3991C50.9862 19.1349 50.6488 17.6222 50.6488 15.8608C50.6488 14.1705 50.9897 12.6932 51.6715 11.429C52.3533 10.1648 53.3157 9.18111 54.5586 8.47798C55.8015 7.77486 57.2681 7.4233 58.9585 7.4233C60.1942 7.4233 61.3129 7.61506 62.3143 7.99858C63.3157 8.3821 64.1715 8.93963 64.8817 9.67116C65.592 10.3956 66.1388 11.2763 66.5224 12.3132C66.9059 13.3501 67.0977 14.5185 67.0977 15.8182V17.1818H52.4812V13.9432H61.6857C61.6786 13.4744 61.5579 13.0625 61.3235 12.7074C61.0962 12.3452 60.7873 12.0646 60.3967 11.8658C60.0131 11.6598 59.5763 11.5568 59.0863 11.5568C58.6104 11.5568 58.1737 11.6598 57.7759 11.8658C57.3782 12.0646 57.0586 12.3416 56.8171 12.6967C56.5827 13.0518 56.4585 13.4673 56.4442 13.9432V17.4375C56.4442 17.9631 56.5543 18.4318 56.7745 18.8438C56.9947 19.2557 57.3107 19.5788 57.7227 19.8132C58.1346 20.0476 58.6317 20.1648 59.2141 20.1648C59.619 20.1648 59.9883 20.108 60.3221 19.9943C60.663 19.8807 60.9542 19.7173 61.1957 19.5043C61.4371 19.2841 61.6147 19.0213 61.7283 18.7159H67.0977C66.913 19.8523 66.4762 20.8395 65.7873 21.6776C65.0984 22.5085 64.1857 23.1548 63.0494 23.6165C61.9201 24.071 60.5991 24.2983 59.0863 24.2983ZM84.4547 12.9631H79.0428C79.0144 12.6293 78.8972 12.3416 78.6912 12.1001C78.4853 11.8587 78.2189 11.674 77.8922 11.5462C77.5726 11.4112 77.2175 11.3438 76.8269 11.3438C76.3226 11.3438 75.8894 11.4361 75.5272 11.6207C75.165 11.8054 74.9874 12.0682 74.9945 12.4091C74.9874 12.6506 75.0904 12.8743 75.3034 13.0803C75.5236 13.2862 75.9462 13.446 76.5712 13.5597L79.8951 14.1562C81.5712 14.4616 82.8176 14.9766 83.6344 15.701C84.4583 16.4183 84.8738 17.3807 84.8809 18.5881C84.8738 19.7528 84.5257 20.7649 83.8368 21.6243C83.155 22.4766 82.2211 23.1371 81.035 23.6058C79.856 24.0675 78.5101 24.2983 76.9973 24.2983C74.4973 24.2983 72.5407 23.7869 71.1273 22.7642C69.7211 21.7415 68.9363 20.392 68.7729 18.7159H74.611C74.6891 19.2344 74.9448 19.6357 75.378 19.9197C75.8184 20.1967 76.3723 20.3352 77.04 20.3352C77.5797 20.3352 78.0236 20.2429 78.3716 20.0582C78.7267 19.8736 78.9078 19.6108 78.915 19.2699C78.9078 18.9574 78.7516 18.7088 78.4462 18.5241C78.1479 18.3395 77.6792 18.1903 77.04 18.0767L74.1422 17.5653C72.4732 17.2741 71.2232 16.7202 70.3922 15.9034C69.5613 15.0866 69.1493 14.0355 69.1564 12.75C69.1493 11.6136 69.4476 10.6513 70.0513 9.86293C70.6621 9.06747 71.5321 8.46378 72.6614 8.05185C73.7978 7.63281 75.1436 7.4233 76.699 7.4233C79.0641 7.4233 80.9284 7.91335 82.2921 8.89347C83.6628 9.87358 84.3837 11.2301 84.4547 12.9631ZM97.7449 16.8409V7.63636H103.626V24H98.0431V20.8892H97.8727C97.5176 21.9332 96.8961 22.75 96.0083 23.3395C95.1206 23.9219 94.0659 24.2131 92.8443 24.2131C91.7008 24.2131 90.6994 23.9503 89.84 23.4247C88.9877 22.8991 88.3237 22.1747 87.8478 21.2514C87.3791 20.3281 87.1412 19.2699 87.1341 18.0767V7.63636H93.0147V16.8409C93.0218 17.6506 93.2278 18.2862 93.6326 18.7479C94.0446 19.2095 94.6199 19.4403 95.3585 19.4403C95.8485 19.4403 96.2711 19.3374 96.6262 19.1314C96.9885 18.9183 97.2654 18.62 97.4572 18.2365C97.6561 17.8459 97.752 17.3807 97.7449 16.8409ZM111.901 20.1222L111.943 13.1335H112.71L116.673 7.63636H123.278L116.631 16.2017H114.969L111.901 20.1222ZM106.616 24V2.18182H112.497V24H106.616ZM116.716 24L112.966 17.5227L116.801 13.3466L123.449 24H116.716ZM128.006 24.3409C127.182 24.3409 126.475 24.0533 125.886 23.478C125.303 22.8956 125.016 22.1889 125.023 21.358C125.016 20.5483 125.303 19.8558 125.886 19.2805C126.475 18.7053 127.182 18.4176 128.006 18.4176C128.787 18.4176 129.476 18.7053 130.073 19.2805C130.676 19.8558 130.982 20.5483 130.989 21.358C130.982 21.9119 130.836 22.4162 130.552 22.8707C130.275 23.3182 129.913 23.6768 129.465 23.9467C129.018 24.2095 128.531 24.3409 128.006 24.3409ZM142.068 24.2983C140.293 24.2983 138.773 23.9467 137.509 23.2436C136.244 22.5334 135.275 21.5462 134.6 20.282C133.926 19.0107 133.588 17.5369 133.588 15.8608C133.588 14.1847 133.926 12.7145 134.6 11.4503C135.275 10.179 136.244 9.19176 137.509 8.48864C138.773 7.77841 140.293 7.4233 142.068 7.4233C143.673 7.4233 145.062 7.71449 146.234 8.29688C147.413 8.87216 148.325 9.68892 148.972 10.7472C149.618 11.7983 149.945 13.0341 149.952 14.4545H144.497C144.419 13.5952 144.171 12.9418 143.752 12.4943C143.34 12.0398 142.807 11.8125 142.154 11.8125C141.642 11.8125 141.195 11.9616 140.811 12.2599C140.428 12.5511 140.129 12.995 139.916 13.5916C139.703 14.1811 139.597 14.9233 139.597 15.8182C139.597 16.7131 139.703 17.4588 139.916 18.0554C140.129 18.6449 140.428 19.0888 140.811 19.3871C141.195 19.6783 141.642 19.8239 142.154 19.8239C142.587 19.8239 142.97 19.7244 143.304 19.5256C143.638 19.3196 143.908 19.0213 144.114 18.6307C144.327 18.233 144.455 17.75 144.497 17.1818H149.952C149.931 18.6236 149.6 19.8807 148.961 20.9531C148.322 22.0185 147.416 22.8423 146.244 23.4247C145.08 24.0071 143.688 24.2983 142.068 24.2983ZM160.262 24.2983C158.486 24.2983 156.966 23.9467 155.702 23.2436C154.438 22.5334 153.468 21.5462 152.794 20.282C152.119 19.0107 151.782 17.5369 151.782 15.8608C151.782 14.1847 152.119 12.7145 152.794 11.4503C153.468 10.179 154.438 9.19176 155.702 8.48864C156.966 7.77841 158.486 7.4233 160.262 7.4233C162.037 7.4233 163.557 7.77841 164.821 8.48864C166.086 9.19176 167.055 10.179 167.73 11.4503C168.404 12.7145 168.742 14.1847 168.742 15.8608C168.742 17.5369 168.404 19.0107 167.73 20.282C167.055 21.5462 166.086 22.5334 164.821 23.2436C163.557 23.9467 162.037 24.2983 160.262 24.2983ZM160.304 19.9517C160.801 19.9517 161.231 19.7848 161.593 19.451C161.956 19.1172 162.236 18.6413 162.435 18.0234C162.634 17.4055 162.733 16.6705 162.733 15.8182C162.733 14.9588 162.634 14.2237 162.435 13.6129C162.236 12.995 161.956 12.5192 161.593 12.1854C161.231 11.8516 160.801 11.6847 160.304 11.6847C159.779 11.6847 159.328 11.8516 158.951 12.1854C158.575 12.5192 158.287 12.995 158.088 13.6129C157.89 14.2237 157.79 14.9588 157.79 15.8182C157.79 16.6705 157.89 17.4055 158.088 18.0234C158.287 18.6413 158.575 19.1172 158.951 19.451C159.328 19.7848 159.779 19.9517 160.304 19.9517ZM171.128 24V7.63636H176.711V10.7472H176.881C177.222 9.72443 177.804 8.91477 178.628 8.31818C179.452 7.72159 180.432 7.4233 181.569 7.4233C182.719 7.4233 183.71 7.72869 184.541 8.33949C185.372 8.94318 185.873 9.74574 186.043 10.7472H186.213C186.49 9.74574 187.08 8.94318 187.982 8.33949C188.884 7.72869 189.942 7.4233 191.157 7.4233C192.726 7.4233 193.998 7.92756 194.971 8.93608C195.951 9.9446 196.441 11.2869 196.441 12.9631V24H190.56V14.4545C190.56 13.7372 190.379 13.1761 190.017 12.7713C189.654 12.3594 189.168 12.1534 188.557 12.1534C187.953 12.1534 187.474 12.3594 187.119 12.7713C186.771 13.1761 186.597 13.7372 186.597 14.4545V24H180.972V14.4545C180.972 13.7372 180.791 13.1761 180.429 12.7713C180.066 12.3594 179.58 12.1534 178.969 12.1534C178.564 12.1534 178.216 12.2457 177.925 12.4304C177.634 12.6151 177.407 12.8814 177.243 13.2294C177.087 13.5703 177.009 13.9787 177.009 14.4545V24H171.128Z" fill="#0C0C0C"/>
</svg>
